<?xml version="1.0" encoding="utf-8"?>
<!-- Generator: Adobe Illustrator 22.0.0, SVG Export Plug-In . SVG Version: 6.00 Build 0)  -->
<svg version="1.1" id="レイヤー_1" xmlns="http://www.w3.org/2000/svg" xmlns:xlink="http://www.w3.org/1999/xlink" x="0px"
	 y="0px" viewBox="0 0 860 320" style="enable-background:new 0 0 860 320;" xml:space="preserve">
<style type="text/css">
	.st0{fill:#FFFFFF;}
</style>
<g id="文字_3_">
	<g id="白_5_">
		<g>
			<path class="st0" d="M200,59H0V19h240v0C224.4,34.6,215.6,43.4,200,59z"/>
		</g>
		<g>
			<path class="st0" d="M40,259V99H0v160c0,22.1,17.9,40,40,40h0h160c15.6-15.6,24.4-24.4,40-40H40z"/>
		</g>
		<g>
			<path class="st0" d="M220,99h-20H80v40h120v80h0c15.6-15.6,24.4-24.4,40-40v-40v-20C232.2,111.2,227.8,106.8,220,99z"/>
		</g>
		<g>
			<rect x="80" y="179" class="st0" width="80" height="40"/>
		</g>
		<g>
			<path class="st0" d="M320,179V19h-40v160c0,22.1,17.9,40,40,40h0h120v-40H320z"/>
		</g>
		<g>
			<path class="st0" d="M500,99h-20H360v40h120v160h0c15.6-15.6,24.4-24.4,40-40V139v-20C512.2,111.2,507.8,106.8,500,99z"/>
		</g>
		<g>
			<rect x="640" y="99" class="st0" width="120" height="40"/>
		</g>
		<g>
			<rect x="640" y="179" class="st0" width="120" height="40"/>
		</g>
		<g>
			<rect x="640" y="260" class="st0" width="120" height="40"/>
		</g>
		<g>
			<path class="st0" d="M640,59V19h-40v23.7l-39.9,39.9c0,22.1,0,34.5,0,56.6l0,0l80-80L640,59z"/>
		</g>
		<g>
			<path class="st0" d="M840,19v238c-15.6,15.6-24.4,24.4-40,40h0V19H840z"/>
		</g>
		<g>
			<path class="st0" d="M419,0L419,0c16.6,0,30,13.4,30,30v0c0,16.6-13.4,30-30,30h0c-16.6,0-30-13.4-30-30v0
				C389,13.4,402.4,0,419,0z"/>
		</g>
	</g>
	<g id="灰色_3_">
		<g>
			<path class="st0" d="M255.2,41l-36,36H22V41H255.2 M260,39H20v40h200C235.6,63.4,244.4,54.6,260,39L260,39L260,39z"/>
		</g>
		<g>
			<path class="st0" d="M58,121v158v2h2h195.2l-36,36H60c-21,0-38-17-38-38V121H58 M60,119H20v160c0,22.1,17.9,40,40,40h0h160
				c15.6-15.6,24.4-24.4,40-40H60V119L60,119z"/>
		</g>
		<g>
			<path class="st0" d="M239.2,121l18.8,18.8V159v39.2l-36,36V159v-2h-2H102v-36h118H239.2 M240,119h-20H100v40h120v80h0
				c15.6-15.6,24.4-24.4,40-40v-40v-20C252.2,131.2,247.8,126.8,240,119L240,119z"/>
		</g>
		<g>
			<path class="st0" d="M178,201v36h-76v-36H178 M180,199h-80v40h80V199L180,199z"/>
		</g>
		<g>
			<path class="st0" d="M338,41v158v2h2h118v36H340c-21,0-38-17-38-38V41H338 M340,39h-40v160c0,22.1,17.9,40,40,40h0h120v-40H340
				V39L340,39z"/>
		</g>
		<g>
			<path class="st0" d="M519.2,121l9.4,9.4l9.4,9.4V159v119.2l-36,36V159v-2h-2H382v-36h118H519.2 M520,119h-20H380v40h120v160h0
				c15.6-15.6,24.4-24.4,40-40V159v-20C532.2,131.2,527.8,126.8,520,119L520,119z"/>
		</g>
		<g>
			<path class="st0" d="M778,121v36H662v-36H778 M780,119H660v40h120V119L780,119z"/>
		</g>
		<g>
			<path class="st0" d="M778,201v36H662v-36H778 M780,199H660v40h120V199L780,199z"/>
		</g>
		<g>
			<path class="st0" d="M778,282v36H662v-36H778 M780,280H660v40h120V280L780,280z"/>
		</g>
		<g>
			<path class="st0" d="M658,41v37.5l-75.9,75.9v-50.9l39.3-39.3l0.6-0.6v-0.8V41H658 M660,39h-40v23.7l-39.9,39.9
				c0,22.1,0,34.5,0,56.6v0l80-80L660,79V39L660,39z"/>
		</g>
		<g>
			<path class="st0" d="M858,41v235.2l-36,36V41H858 M860,39h-40v278c15.6-15.6,24.4-24.4,40-40V39L860,39z"/>
		</g>
		<g>
			<path class="st0" d="M439,22c15.4,0,28,12.6,28,28c0,15.4-12.6,28-28,28s-28-12.6-28-28C411,34.6,423.6,22,439,22 M439,20
				c-16.6,0-30,13.4-30,30v0c0,16.6,13.4,30,30,30s30-13.4,30-30v0C469,33.4,455.6,20,439,20L439,20z"/>
		</g>
	</g>
</g>
</svg>
